# xmcd
#
# Track frame offsets: 
#        150
#        9117
#        27624
#        42029
#        57832
#        72500
#        91502
#        106128
#        121611
#        148381
#        168643
#        188403
#
# Disc length: 2723 seconds
#
# Revision: 0
# Processed by: cddbd v1.5.2PL0 Copyright (c) Steve Scherf et al.
# Submitted via: ExactAudioCopyFreeDBPlugin 1.0
#
DISCID=930aa10c
DTITLE=Ray Wylie Hubbard - The Grifter's Hymnal
DYEAR=2012
DGENRE=Texas Country
TTITLE0=Coricidin Bottle
TTITLE1=South of the River
TTITLE2=Lazarus
TTITLE3=New Year's Eve at the Gates of Hell
TTITLE4=Moss and Flowers
TTITLE5=Red Badget of Courage
TTITLE6=Train Yard
TTITLE7=Coochy Coochy
TTITLE8=Mother Blues
TTITLE9=Henhouse
TTITLE10=Count My Blessings
TTITLE11=Ask God
EXTD=
EXTT0=
EXTT1=
EXTT2=
EXTT3=
EXTT4=
EXTT5=
EXTT6=
EXTT7=
EXTT8=
EXTT9=
EXTT10=
EXTT11=
PLAYORDER=
